PathFileType	4	(X/Y/Z)	Kaydara																																																																																																																									
DataRate	CameraRate	NumFrames	NumMarkers	Units	OrigDataRate	OrigDataStartFrame	OrigNumFrames																																																																																																																					
30	30	8	41	mm	30	87	345																																																																																																																					
Frame#	Time	NABA_LFHD			NABA_RFHD			NABA_LBHD			NABA_RBHD			NABA_LFTShould			NABA_RFTShould			NABA_LRRShould			NABA_RRRShould			NABA_T10			NABA_STRN			NABA_TRUN			NABA_LSHO			NABA_LUPA			NABA_LELB			NABA_LFRM			NABA_LWRA			NABA_LWRB			NABA_LFIN			NABA_RSHO			NABA_RUPA			NABA_RELB			NABA_RFRM			NABA_RWRA			NABA_RWRB			NABA_RFIN			NABA_LFWT			NABA_RFWT			NABA_LBWT			NABA_RBWT			NABA_LTHI			NABA_LKNE			NABA_LSHN			NABA_LANK			NABA_LHEE			NABA_LTOE			NABA_RTHI			NABA_RKNE			NABA_RSHN			NABA_RANK			NABA_RHEE			NABA_RTOE		
		X1	Y1	Z1	X2	Y2	Z2	X3	Y3	Z3	X4	Y4	Z4	X5	Y5	Z5	X6	Y6	Z6	X7	Y7	Z7	X8	Y8	Z8	X9	Y9	Z9	X10	Y10	Z10	X11	Y11	Z11	X12	Y12	Z12	X13	Y13	Z13	X14	Y14	Z14	X15	Y15	Z15	X16	Y16	Z16	X17	Y17	Z17	X18	Y18	Z18	X19	Y19	Z19	X20	Y20	Z20	X21	Y21	Z21	X22	Y22	Z22	X23	Y23	Z23	X24	Y24	Z24	X25	Y25	Z25	X26	Y26	Z26	X27	Y27	Z27	X28	Y28	Z28	X29	Y29	Z29	X30	Y30	Z30	X31	Y31	Z31	X32	Y32	Z32	X33	Y33	Z33	X34	Y34	Z34	X35	Y35	Z35	X36	Y36	Z36	X37	Y37	Z37	X38	Y38	Z38	X39	Y39	Z39	X40	Y40	Z40	X41	Y41	Z41
																																																																																																																												
87	2.877	281.41705	1475.91064	-1641.43188	110.56958	1443.52737	-1647.66434	299.07543	1548.36792	-1743.12759	81.28613	1503.74146	-1723.77213	277.82145	1305.39261	-1804.94263	143.82829	1301.64856	-1813.97202	284.43216	1374.43069	-1913.58597	134.49494	1370.20004	-1914.40872	223.66663	1219.76875	-2008.58673	209.31501	1244.15466	-1768.79471	208.02023	1142.5415	-1731.57623	380.26154	1331.67313	-1848.19458	437.74006	1096.03973	-1898.61099	444.61521	1009.08241	-1878.61908	439.11297	939.57047	-1906.79871	380.09632	785.75081	-1846.18103	450.84415	787.31598	-1842.74872	425.71629	725.83015	-1805.62546	51.52906	1329.00894	-1857.45148	1.04241	1131.46797	-1945.43808	-30.76124	1007.32025	-1912.63214	-36.05995	912.74376	-1910.64194	28.51674	783.64983	-1843.57025	-44.61207	772.82455	-1842.5058	-28.17473	732.63908	-1815.04822	338.64693	926.04294	-1832.57401	72.89604	933.45284	-1843.85605	295.76292	1001.73767	-1998.53241	129.73861	1015.01328	-2012.94189	332.57454	643.36685	-2004.77097	319.90458	487.85393	-1970.20386	254.16668	292.64833	-1982.92206	276.62897	154.82991	-2076.72653	217.17884	118.93694	-2141.82159	251.15118	77.3395	-1967.33688	59.8164	643.30086	-1910.54565	76.79455	530.98186	-1746.78543	79.69387	362.65564	-1703.88855	60.53988	161.39772	-1693.78815	102.63688	90.75292	-1742.49863	103.5544	133.49828	-1542.6503
88	2.91	279.34734	1474.35974	-1629.90143	108.51662	1441.62262	-1635.50827	296.46084	1546.79443	-1731.56326	78.84908	1501.81702	-1711.62079	275.28782	1303.99155	-1793.11371	141.49895	1299.87946	-1802.20154	281.8508	1372.90649	-1901.83105	131.97054	1368.32794	-1902.63565	221.31611	1218.04222	-1996.74942	207.04412	1242.4353	-1757.15302	205.89348	1140.86647	-1719.85687	377.85278	1330.34622	-1836.31653	435.67757	1094.96445	-1887.4231	442.72602	1008.20145	-1867.91687	436.992	938.34381	-1895.81421	377.8661	784.87434	-1834.91226	448.6079	786.02707	-1831.71265	423.54378	724.60846	-1794.56818	49.13458	1326.94977	-1845.51361	-1.06191	1129.43527	-1933.80173	-32.77056	1005.26039	-1900.91095	-37.89937	910.65575	-1898.80951	27.78134	781.99867	-1831.48468	-45.46506	770.5957	-1830.34348	-28.55596	730.60837	-1803.02521	337.14947	924.71031	-1821.01959	71.35761	931.41586	-1831.16394	293.70733	1000.45082	-1986.43021	127.02209	1013.29727	-2000.27405	330.75619	643.50945	-1996.59637	318.89568	487.46498	-1964.19891	253.85921	292.27499	-1979.69772	276.4768	155.83824	-2075.49805	217.07558	120.71107	-2140.99564	250.93426	77.11062	-1967.23877	57.92284	641.40793	-1897.98782	75.51954	528.78914	-1735.35614	77.61262	361.40831	-1691.32599	58.6695	160.29278	-1678.4166	101.78259	88.9131	-1725.56229	99.00341	134.70461	-1526.45721
89	2.943	276.47722	1472.97241	-1617.05093	105.85249	1439.91714	-1622.18979	293.24238	1545.59692	-1718.84781	75.80156	1499.97269	-1698.22662	272.64479	1302.75116	-1780.34683	138.64584	1298.3255	-1788.965	278.53432	1371.49643	-1889.08173	128.65015	1366.58722	-1889.59274	218.07827	1216.47644	-1983.69537	204.48284	1241.0054	-1744.1983	203.68584	1139.43794	-1706.92245	374.82616	1329.32159	-1824.10858	433.00468	1094.1713	-1875.20355	440.25429	1007.42889	-1856.22208	434.38251	937.39967	-1883.94409	374.8941	784.17526	-1823.08289	445.79762	785.01854	-1819.70352	420.55233	723.64799	-1782.7327	45.912	1325.18372	-1832.52914	-3.11986	1127.59476	-1920.92316	-34.95622	1003.3284	-1888.0751	-39.66339	908.63815	-1885.94849	26.54198	780.62073	-1817.91351	-46.56625	768.53043	-1817.31552	-29.61613	728.73528	-1789.91714	335.54108	923.09174	-1808.9946	69.54072	929.48578	-1817.03796	290.20449	999.29016	-1973.75015	123.33914	1011.91544	-1986.138	328.27015	643.93486	-1988.02109	317.55919	487.4054	-1957.97363	253.58404	292.09429	-1976.19247	276.19751	157.22323	-2074.35806	216.79256	123.04526	-2139.99039	251.27554	77.00464	-1966.95282	55.85912	639.4006	-1885.50217	73.08209	525.45368	-1724.58969	75.32356	358.42514	-1681.13724	57.38019	157.19162	-1668.7886	101.94355	86.30688	-1715.34119	95.36012	131.45627	-1516.11771
90	2.977	273.16395	1472.00272	-1602.89383	102.56728	1438.54416	-1607.64023	289.49717	1544.61426	-1704.73999	72.22481	1498.55194	-1683.60367	269.12169	1301.61346	-1766.38657	135.22948	1296.82495	-1774.32587	274.6031	1370.47409	-1875.1915	124.45575	1365.27908	-1875.05463	213.90892	1215.45029	-1969.48257	201.54156	1239.70039	-1729.93942	201.2849	1138.12065	-1692.69348	371.29147	1328.42911	-1810.49957	429.60487	1093.55255	-1862.37381	436.99284	1006.6729	-1843.71124	430.96588	936.69762	-1871.4267	371.56914	783.60153	-1810.24536	442.53155	784.33777	-1807.18948	417.24125	723.02238	-1770.03769	42.34919	1323.55103	-1817.43774	-5.95081	1126.02364	-1906.44608	-37.56411	1001.60179	-1873.83316	-42.00786	906.86264	-1871.76666	24.7556	779.01985	-1803.48618	-48.31638	766.67671	-1803.30978	-31.24005	726.99913	-1775.80246	332.88986	922.01317	-1795.58884	66.60404	928.27377	-1801.32141	285.62134	998.54874	-1960.12207	119.02519	1010.64438	-1970.77057	325.20142	645.30136	-1978.43811	316.22818	488.28159	-1950.79422	253.73802	292.64206	-1972.00729	276.27031	159.74455	-2072.77603	216.77588	126.48496	-2138.44177	251.95873	76.84024	-1966.53091	53.9483	637.51186	-1873.02856	70.14901	521.03016	-1714.25613	73.37071	353.51326	-1673.62701	56.93194	151.95086	-1665.03738	103.1433	82.52514	-1712.25601	92.92625	123.16229	-1512.2464
91	3.01	269.52541	1471.2735	-1587.4826	99.0781	1437.56134	-1591.67068	285.39276	1543.91754	-1689.32892	68.28467	1497.55066	-1667.55951	265.51416	1300.96481	-1751.47034	131.59376	1296.00403	-1758.26996	269.75489	1369.95483	-1860.27496	119.72021	1364.51263	-1858.87543	208.45955	1214.80553	-1954.06433	198.21215	1238.95142	-1714.44931	198.47834	1137.37366	-1677.23267	367.00691	1328.0188	-1796.30951	425.25936	1093.54088	-1849.31961	432.98264	1006.4476	-1830.78079	426.73069	936.50223	-1858.42194	367.7095	783.53699	-1796.49918	438.71761	784.2421	-1794.11652	413.88233	722.92099	-1756.73508	38.4293	1322.49741	-1799.96613	-9.92952	1124.96155	-1890.02365	-40.81988	1000.38452	-1857.68982	-44.9741	905.6543	-1856.04599	22.4025	777.4086	-1788.81012	-50.86751	765.1432	-1788.06061	-33.71808	725.58418	-1760.66681	329.48555	922.08313	-1780.37933	62.81449	927.37167	-1783.33496	280.20962	998.44887	-1944.44321	113.3936	1009.88815	-1953.32245	321.72012	647.46964	-1967.07077	314.7669	490.00328	-1941.86005	254.09985	294.02658	-1966.56326	276.79867	163.50109	-2070.49652	217.1957	131.33623	-2136.28662	252.93056	76.68861	-1965.83466	52.49567	635.99098	-1860.51636	67.31748	515.09785	-1705.43228	71.48309	347.0409	-1669.73114	57.28436	145.39843	-1665.77728	104.92872	77.8767	-1712.81586	91.95641	110.69295	-1512.26822
92	3.043	265.64455	1471.14227	-1570.60135	95.23544	1437.43225	-1574.22867	281.03403	1544.57657	-1672.02057	64.09399	1497.98645	-1649.49493	261.19162	1302.02255	-1735.51437	127.3144	1296.57486	-1741.04233	264.16817	1370.9819	-1844.55338	114.08171	1365.24414	-1841.32935	202.24949	1215.80078	-1937.23099	194.54239	1239.5491	-1697.91412	195.33875	1138.1015	-1660.36514	362.00886	1328.91785	-1781.79504	419.9855	1094.23843	-1835.55267	428.15483	1007.22969	-1817.1405	421.6468	937.31392	-1844.81232	363.45482	784.58031	-1781.95755	434.58523	785.03487	-1780.58029	410.34489	723.80119	-1742.87827	33.45522	1322.84027	-1781.69891	-14.91811	1124.98611	-1872.0076	-44.61189	1000.14992	-1839.55002	-48.66791	905.7029	-1838.6911	18.63147	776.9545	-1772.16736	-54.51708	764.73274	-1771.86401	-37.35194	724.94469	-1744.57169	325.20916	922.75452	-1764.06448	58.75416	927.81113	-1764.94247	274.13382	999.36684	-1927.36633	106.93819	1011.46126	-1934.72137	317.54297	650.09033	-1953.41034	312.67704	492.42798	-1930.49591	254.16016	296.26347	-1959.47128	277.69661	168.69535	-2066.99982	218.30378	137.93271	-2133.24722	254.26105	76.62576	-1964.54849	49.88229	637.13001	-1849.01657	65.00916	511.21426	-1697.23145	70.07531	346.1525	-1662.96051	57.41442	144.53425	-1657.69897	105.91406	79.65161	-1706.315	88.95607	101.48265	-1502.87201
93	3.077	261.47346	1472.35825	-1552.18369	91.11798	1438.68896	-1555.19699	276.41739	1546.23337	-1653.37234	59.56127	1499.58054	-1630.05035	256.51503	1303.80768	-1718.06076	122.40556	1298.31573	-1722.49969	258.35985	1373.30872	-1826.60538	108.53085	1367.49603	-1822.44354	195.98526	1218.26469	-1919.40063	190.26873	1241.9986	-1679.91074	191.37999	1140.17593	-1642.46475	357.24083	1330.99808	-1764.73831	413.80787	1096.70776	-1820.72769	422.81342	1010.18028	-1802.85782	415.88646	939.9807	-1830.31769	358.68168	787.25159	-1766.35345	429.82426	787.50908	-1766.47552	406.39465	726.18217	-1728.65509	28.37204	1325.20294	-1762.3645	-20.39701	1127.17407	-1852.06177	-48.85382	1002.18216	-1819.55872	-53.20344	908.08182	-1819.42825	13.88747	778.62656	-1754.5015	-59.36947	766.72798	-1753.91571	-42.10762	726.20735	-1727.1489	319.67916	924.54529	-1746.73111	53.42593	930.60158	-1746.91574	268.21321	1002.22321	-1909.61502	101.61196	1015.12367	-1916.65024	313.32439	653.43658	-1938.19931	310.66816	495.84919	-1916.96014	254.56409	299.39415	-1950.96024	278.69282	175.52002	-2062.33353	219.36275	146.40998	-2128.93295	255.70843	76.60637	-1962.80106	44.82893	639.98497	-1834.5195	62.17261	512.51942	-1683.30521	67.82871	345.27828	-1653.76007	56.36487	143.49211	-1653.23715	104.82548	80.91553	-1704.07166	90.38235	92.88123	-1499.30603
94	3.11	256.90237	1474.14703	-1532.62634	86.57106	1440.56778	-1535.18097	271.59876	1548.41949	-1633.6261	54.7613	1501.76865	-1609.83063	251.27615	1306.51901	-1699.49127	117.41853	1301.25198	-1703.1572	252.75972	1376.20819	-1807.77374	102.91124	1370.64972	-1802.67303	189.627	1221.6423	-1900.63583	185.03473	1244.77371	-1661.03073	186.16673	1142.9718	-1623.99887	351.88133	1333.90518	-1746.46286	407.74784	1100.2964	-1804.56711	417.24354	1013.58658	-1787.32483	409.90868	943.58421	-1815.19577	353.37234	790.38788	-1751.36093	424.50127	790.8268	-1752.0755	401.63265	729.37538	-1714.16672	23.0026	1328.75565	-1742.19528	-26.54664	1130.59067	-1831.00708	-53.7412	1005.61539	-1798.57407	-58.4268	911.85341	-1799.15436	8.34351	782.1888	-1734.8703	-64.30233	770.25803	-1735.27435	-47.13695	729.43405	-1708.3194	313.28144	927.22916	-1728.84842	46.89381	934.05472	-1728.05756	262.52325	1005.19974	-1891.02875	95.71287	1018.34473	-1898.26141	309.76425	656.92245	-1922.05032	309.06137	499.35875	-1901.51978	255.81234	303.14571	-1940.96939	280.47989	183.23202	-2056.40945	221.28729	156.09833	-2123.50464	257.74094	76.42728	-1960.90546	38.10308	643.41911	-1818.78616	57.03613	513.19141	-1671.00281	64.78463	345.0444	-1644.26468	54.49816	143.09011	-1648.71002	102.48655	82.19519	-1702.16949	93.02505	86.21136	-1496.11115
